<?xml version="1.0" encoding="utf-8"?>
<!-- Generator: Adobe Illustrator 26.0.1, SVG Export Plug-In . SVG Version: 6.00 Build 0)  -->
<svg version="1.1" id="Layer_1" xmlns="http://www.w3.org/2000/svg" xmlns:xlink="http://www.w3.org/1999/xlink" x="0px" y="0px"
	 viewBox="0 0 500 500" style="enable-background:new 0 0 500 500;" xml:space="preserve">
<style type="text/css">
	.st0{fill:#F7BC94;}
</style>
<path class="st0" d="M-345-10.8c0-3.4-0.7-4.1-4.1-4.1c-163.9,0.1-327.9,0.1-491.8,0c-3.4,0-4.1,0.7-4.1,4.1
	c0.1,163.9,0.1,327.9,0,491.8c0,3.4,0.7,4.1,4.1,4.1c163.9-0.1,327.9-0.1,491.8,0c3.4,0,4.1-0.7,4.1-4.1
	c-0.1-81.8-0.1-163.6-0.1-245.4C-345.1,153.4-345.1,71.3-345-10.8z M-627.7,167.4c7.5-0.1,12.8,5.3,12.7,12.9
	c0,7.3-5.3,12.5-12.7,12.5c-7.4,0-12.4-5.1-12.4-12.7S-635.2,167.4-627.7,167.4z M-761.5,312.1c-4.9-10.2-5.5-10.8-14.9-15.4
	c9.6-4.9,11.3-6.6,14.7-15.3c1.8,3.8,3,7.3,5.8,9.9c2.8,2.5,6,4,9.8,5.5C-754.1,299.1-759.4,303.9-761.5,312.1z M-713.3,247
	c-3.2,8.1-12.7,13.5-23.3,13.3c-12.8-0.2-25.1-8.6-29.4-20.3c-4.1-11.2-0.4-27.2,8.2-35.1c9-8.3,23.3-10.1,35-4.4
	c1.5,0.7,2.9,1.6,4.2,2.6c4.2,3.2,4.3,5.2,0.5,8.8c-3.2,3.1-6.8,5.9-10,9c-2.9,2.7-4.7,2.8-6.3-1.5c-2.1-5.5-6.3-9.4-11.7-11.7
	c-6.7-2.8-11.7,0.5-12,7.7c-0.6,14.7,25.1,33.3,39,28.2c0.6-0.2,1.2-0.6,1.8-0.8c1.6-0.6,2.7-3.5,4.6-1.9
	C-711,242.7-712.6,245.1-713.3,247z M-672.5,258.8c3.2-13.2,1.2-26.6,1.5-39.9c0-2.6-1.1-5.1-4-5.6c-3.2-0.6-5.4,1.1-6.8,3.9
	c-1,2-1.3,4.1-1.3,6.3c0,9,0,18-0.1,27c0,2.9,1,5.5,2,8.4h-27.5c2.1-3.8,2.2-7.6,2.2-11.4c0-18.8,0-37.6,0-56.4c0-2.5,0.5-5.4-2-6.9
	c-3.8-2.3-2.3-3.4,0.6-4.7c6.1-2.7,12-5.7,18.5-7.5c4.9-1.4,6-0.5,6.1,4.5c0.1,10.6,0,21.3,0,32.1c2.8,0.1,3.5-2.1,4.7-3.5
	c3.4-4.1,7.5-7.1,12.9-7.8c9.2-1.2,15.3,3.5,16.6,12.9c1.5,3.3,0.9,6.9,1,10.3c0.1,10.8,0,21.6,0,32.4c0.7,1.8,1.5,3.7,2.3,5.9
	L-672.5,258.8L-672.5,258.8z M-640.9,258.8c3.5-8.5,2.2-17.4,1.8-26c-0.4-8.4,3.4-17.6-3.6-25.5c7.1-4.4,14.9-7.6,23-10
	c1-0.3,2-0.1,2.7,0.8c1.5,1.1,1,2.7,1,4.1c0,16.9,0,33.8,0,50.7c0.7,1.8,1.5,3.6,2.3,5.8L-640.9,258.8L-640.9,258.8z M-490.1,245.9
	c-3.4,8.1-9.4,13.2-18.4,14.2c-6.1,0.7-11.2-1-15.1-5.9c-0.8-1-1.3-2.4-3.5-2.8c0,5.9,0,11.6,0,17.3c0,3.7,0,7.3-0.2,11
	c-0.2,2.9-1.5,5.2-4.9,5.2c-6.6,0.1-13.2,0-20.2,0c0.9-2.6,1.6-4.8,2.4-7c0-21.6,0-43.2,0-64.9c-0.6-1-1.1-2.1-1.9-2.9
	c-1.7-1.6-3-2.1-4.3,0.9c-4.1,9.3-8.3,10.4-16.6,4.6c-4.5-3.1-8.6-6.8-12.9-10.2c-2.7-2.1-5.8-3.4-9.3-3c-2.8,0.3-5.2,1.5-5.8,4.6
	c-0.6,3.2,1.5,4.9,4.1,6c5.1,2.1,10.7,2.6,16,3.8c4.7,1.1,9.3,2.6,13.6,4.8c7.4,3.7,11.4,9.7,11.3,17.8c-0.1,8.4-4.3,14.6-12.2,17.7
	c-13.5,5.4-26.8,3.1-39.9-1.8c-2.6-1-3.5-3-2.5-5.6c0.3-0.8,0.4-1.6,0.7-2.4c4-12.1,5.8-12.9,16.5-6.4c6.1,3.7,12.4,6.4,19.6,6.5
	c3.4,0,6.6-0.6,9.5-2.4c2.2-1.4,4-3.3,3-6.2c-1-2.7-3.6-1.9-5.7-1.7c-7.8,1-15.6,1.4-23.4-0.2c-5.1-1.1-9.9-3-14-6.3
	c-11-8.5-9.1-25.4,3.7-30.5c13.2-5.2,26.4-4,39.3,1.5c0.3,0.1,0.7,0.2,0.9,0.5c4.3,6.1,8.9,3.2,13.8,0.8c4.3-2.1,8.9-3.7,13.5-5.3
	c3.2-1.2,5.7-0.8,5.7,3.5c0,3.2,1.4,2.7,3.4,1.3c12.8-9.1,26.1-5.8,32.7,8.4C-485.7,222.4-485.1,234.2-490.1,245.9z M-502.8,161.7
	c8.9-2.8,14.3-8.1,16.9-17.7c2.5,9.8,8.1,14.9,17.2,17.7c-9.1,2.5-14.5,7.9-17.2,16.3C-488.5,169.5-494.1,164.6-502.8,161.7z
	 M-442.7,258.9c-1.9,0-2.9-1.6-3.4-3.2c-1.3-3.8-3.5-3.5-5.9-1.2c-4.4,4.1-9.5,6-15.5,5.8c-8.9-0.3-15.3-7.1-14.9-16
	c0.5-11.1,6.8-18.5,16-23.7c4.7-2.6,9.7-4.4,14.9-5.6c2.6-0.6,4.8-1.5,4.7-4.8c-0.1-3.4-0.8-6.7-4.4-7.6c-3.3-0.8-6.6-1-9.7,1.8
	c-4.1,3.8-7.2,8.3-10.8,12.4c-1.3,1.5-2.7,3.3-5,2.6c-2.5-0.7-2.1-3.1-2.2-5.1c-0.3-9.4,1.9-12.8,10.9-15.2
	c10.1-2.7,20.4-3.5,30.2,1.5c7,3.5,11.5,8.9,13.2,16.6l0.4,3c1.5,8.4,0.4,16.9,0.7,25.4c0.2,4.3-0.2,8.7,2.3,13.4
	C-428.6,258.9-435.7,259-442.7,258.9z"/>
<path d="M354,225.9c-6.7-14.3-19.9-17.6-32.7-8.4c-2,1.4-3.3,1.9-3.4-1.3c0-4.2-2.5-4.7-5.7-3.5c-4.5,1.7-9.1,3.2-13.5,5.3
	c-4.9,2.4-9.5,5.3-13.8-0.8c-0.2-0.2-0.5-0.4-0.9-0.5c-12.9-5.5-26.2-6.7-39.4-1.5c-12.8,5.1-14.7,22-3.7,30.5
	c4.1,3.2,8.9,5.2,14,6.3c7.8,1.6,15.5,1.3,23.4,0.2c2-0.3,4.7-1.1,5.7,1.7c1,2.8-0.8,4.8-3,6.2c-2.9,1.9-6.1,2.5-9.5,2.4
	c-7.3-0.1-13.6-2.9-19.6-6.5c-10.7-6.5-12.5-5.7-16.5,6.4c-0.3,0.8-0.4,1.6-0.7,2.4c-1,2.7-0.1,4.7,2.5,5.6
	c13.1,4.9,26.4,7.2,39.9,1.8c7.8-3.1,12.1-9.4,12.2-17.7c0.1-8.1-3.9-14.2-11.3-17.8c-4.4-2.2-8.9-3.6-13.6-4.8
	c-5.3-1.3-10.9-1.7-16-3.8c-2.6-1.1-4.8-2.8-4.1-6c0.6-3.1,3-4.3,5.8-4.6c3.5-0.4,6.6,0.9,9.3,3c4.3,3.4,8.4,7.1,12.9,10.2
	c8.3,5.8,12.5,4.7,16.6-4.6c1.3-3,2.6-2.5,4.3-0.9c0.8,0.8,1.3,1.9,1.9,2.9c0,21.6,0,43.2,0,64.9c-0.8,2.2-1.5,4.3-2.4,7
	c7,0,13.6,0,20.2,0c3.4,0,4.7-2.3,4.9-5.2c0.2-3.6,0.2-7.3,0.2-11c0-5.7,0-11.5,0-17.3c2.3,0.4,2.8,1.8,3.5,2.8
	c3.9,4.9,9,6.6,15.1,5.9c9-1,15-6.2,18.4-14.2C359.9,249.1,359.3,237.3,354,225.9z M333.8,257.8c-1.4,4-3.9,6.7-8.4,6.6
	c-4.6-0.1-6.5-3.5-6.9-7.2c-1-9.8-1.1-19.6,0.1-29.4c0.4-3.1,1.6-6,5.2-6.4c3.7-0.4,6.4,1.6,8.2,4.6c3.5,5.7,3.2,12.1,3.2,16.9
	C335.1,248.9,335.3,253.4,333.8,257.8z"/>
<path d="M172.4,273.7c3.2-13.2,1.2-26.6,1.5-39.9c0.1-2.6-1.1-5.1-4-5.6c-3.2-0.6-5.4,1.1-6.8,3.9c-1,2-1.3,4.1-1.3,6.3
	c-0.1,9,0,18-0.1,27c0,2.9,1,5.5,2,8.4h-27.4c2.1-3.8,2.2-7.6,2.2-11.4c0-18.8,0-37.6,0-56.4c0-2.5,0.5-5.4-2-6.9
	c-3.8-2.3-2.4-3.4,0.6-4.7c6.1-2.7,12.1-5.7,18.5-7.5c4.9-1.4,6.1-0.5,6.1,4.5c0.1,10.6,0,21.3,0,32.1c2.8,0.1,3.6-2.1,4.7-3.5
	c3.4-4.1,7.5-7.1,12.9-7.8c9.2-1.2,15.4,3.5,16.6,12.9c1.5,3.3,0.9,6.9,1,10.3c0.1,10.8,0,21.6,0,32.4c0.7,1.8,1.5,3.7,2.3,5.9
	L172.4,273.7L172.4,273.7z"/>
<path d="M421.6,260.5c-0.3-8.5,0.9-17-0.7-25.4l-0.4-3c-1.7-7.6-6.3-13.1-13.2-16.6c-9.9-4.9-20.1-4.2-30.2-1.5
	c-9,2.4-11.2,5.8-10.9,15.2c0.1,2-0.3,4.3,2.2,5.1c2.3,0.7,3.7-1.1,5-2.6c3.6-4.2,6.7-8.7,10.8-12.4c3.1-2.8,6.4-2.6,9.7-1.8
	c3.6,0.9,4.3,4.2,4.4,7.6c0.1,3.3-2.1,4.3-4.7,4.8c-5.2,1.1-10.2,2.9-14.9,5.6c-9.2,5.2-15.4,12.6-16,23.7c-0.5,8.9,6,15.7,14.9,16
	c6,0.2,11.1-1.8,15.5-5.8c2.5-2.3,4.6-2.6,5.9,1.2c0.6,1.7,1.6,3.2,3.4,3.2c7,0.1,14,0,21.6,0C421.4,269.2,421.7,264.8,421.6,260.5z
	 M397.8,258.9c-0.8,2.6-2.1,4.9-5.3,5.2c-3.1,0.3-5.5-0.6-7.2-3.3c-4.4-6.7-1.4-20.1,5.4-24.2c4.8-2.9,7.4-1.7,7.9,3.9
	c0.2,2.3,0,4.6,0,7C398.7,251.3,398.9,255.2,397.8,258.9z"/>
<path d="M108.3,275.3c-12.8-0.2-25.1-8.6-29.4-20.3c-4.2-11.2-0.4-27.2,8.2-35.1c9-8.3,23.3-10.1,35-4.4c1.5,0.7,2.9,1.6,4.2,2.6
	c4.2,3.2,4.3,5.2,0.5,8.8c-3.2,3.1-6.8,5.9-10.1,9c-2.9,2.7-4.7,2.8-6.3-1.5c-2.1-5.5-6.3-9.4-11.7-11.6c-6.7-2.8-11.7,0.5-12,7.7
	c-0.6,14.7,25.1,33.3,39,28.2c0.6-0.2,1.2-0.6,1.8-0.8c1.6-0.6,2.7-3.5,4.6-1.9c1.9,1.7,0.3,4.1-0.5,6
	C128.4,270.1,118.9,275.4,108.3,275.3z"/>
<path d="M204.1,273.7c3.5-8.5,2.2-17.4,1.8-26c-0.4-8.4,3.4-17.6-3.6-25.5c7.1-4.4,14.9-7.6,23-10c1-0.3,2-0.1,2.7,0.8
	c1.5,1.1,1,2.7,1,4.1c0,16.9,0,33.8,0,50.7c0.7,1.8,1.5,3.6,2.3,5.8L204.1,273.7L204.1,273.7z"/>
<path d="M204.9,195c0-7.6,4.9-12.6,12.3-12.7c7.5-0.1,12.8,5.3,12.7,12.9c-0.1,7.4-5.3,12.5-12.7,12.5
	C209.9,207.7,205,202.6,204.9,195z"/>
<path d="M359,192.9c-2.5-8.5-8.1-13.4-16.8-16.3c8.9-2.8,14.3-8.1,16.9-17.7c2.5,9.8,8.1,14.9,17.2,17.7
	C367.2,179.2,361.7,184.6,359,192.9z"/>
<path d="M68.5,311.6c9.6-4.9,11.3-6.5,14.7-15.3c1.8,3.8,3,7.3,5.8,9.9c2.8,2.5,6,4,9.8,5.5c-8,2.4-13.2,7.1-15.4,15.3
	C78.6,316.8,78,316.2,68.5,311.6z"/>
</svg>
